<svg width="960" height="96" viewBox="0 0 960 96" fill="none" xmlns="http://www.w3.org/2000/svg">
<path fill-rule="evenodd" clip-rule="evenodd" d="M-40 95.7434V0H538H1116V95.7434H1115.49C1115.02 94.8582 1114.38 94.0393 1113.53 93.3533H1113.56L1103.13 84.8106C1099.71 82 1094.3 82 1090.88 84.8106L1083.83 90.5869C1080.41 93.3975 1075 93.3975 1071.58 90.5869L1064.53 84.8106C1061.1 82 1055.7 82 1052.28 84.8106L1045.22 90.5869C1041.8 93.3975 1036.4 93.3975 1032.97 90.5869L1025.92 84.8106C1022.5 82 1017.09 82 1013.67 84.8106L1006.62 90.5869C1003.2 93.3975 997.793 93.3975 994.37 90.5869L987.318 84.8106C983.895 82 978.49 82 975.067 84.8106L968.016 90.5869C964.593 93.3975 959.188 93.3975 955.765 90.5869L948.713 84.8106C945.29 82 939.886 82 936.463 84.8106L929.411 90.5869C925.988 93.3975 920.583 93.3975 917.161 90.5869L910.109 84.8106C906.686 82 901.281 82 897.858 84.8106L890.806 90.5869C887.383 93.3975 881.979 93.3975 878.556 90.5869L871.504 84.8106C868.081 82 862.677 82 859.254 84.8106L852.202 90.5869C848.779 93.3975 843.374 93.3975 839.951 90.5869L832.9 84.8106C829.477 82 824.072 82 820.649 84.8106L813.597 90.5869C810.174 93.3975 804.77 93.3975 801.347 90.5869L794.295 84.8106C790.872 82 785.467 82 782.044 84.8106L774.993 90.5869C771.57 93.3975 766.165 93.3975 762.742 90.5869L755.69 84.8106C752.267 82 746.863 82 743.44 84.8106L736.388 90.5869C732.965 93.3975 727.56 93.3975 724.138 90.5869L717.086 84.8106C713.663 82 708.258 82 704.835 84.8106L697.783 90.5869C694.36 93.3975 688.956 93.3975 685.533 90.5869L678.481 84.8106C675.058 82 669.654 82 666.231 84.8106L659.179 90.5869C655.756 93.3975 650.351 93.3975 646.928 90.5869L639.876 84.8106C636.454 82 631.049 82 627.626 84.8106L620.574 90.5869C617.151 93.3975 611.747 93.3975 608.324 90.5869L601.272 84.8106C597.849 82 592.444 82 589.021 84.8106L581.97 90.5869C578.547 93.3975 573.142 93.3975 569.719 90.5869L562.667 84.8106C559.244 82 553.84 82 550.417 84.8106L543.365 90.5869C541.85 91.8307 539.947 92.5241 538 92.667C536.053 92.5241 534.15 91.8307 532.635 90.5869L525.583 84.8106C522.16 82 516.756 82 513.333 84.8106L506.281 90.5869C502.858 93.3975 497.453 93.3975 494.03 90.5869L486.979 84.8106C483.556 82 478.151 82 474.728 84.8106L467.676 90.5869C464.253 93.3975 458.849 93.3975 455.426 90.5869L448.374 84.8106C444.951 82 439.546 82 436.124 84.8106L429.072 90.5869C425.649 93.3975 420.244 93.3975 416.821 90.5869L409.769 84.8106C406.346 82 400.942 82 397.519 84.8106L390.467 90.5869C387.044 93.3975 381.64 93.3975 378.217 90.5869L371.165 84.8106C367.742 82 362.337 82 358.914 84.8106L351.862 90.5869C348.44 93.3975 343.035 93.3975 339.612 90.5869L332.56 84.8106C329.137 82 323.733 82 320.31 84.8106L313.258 90.5869C309.835 93.3975 304.43 93.3975 301.007 90.5869L293.956 84.8106C290.533 82 285.128 82 281.705 84.8106L274.653 90.5869C271.23 93.3975 265.826 93.3975 262.403 90.5869L255.351 84.8106C251.928 82 246.523 82 243.1 84.8106L236.049 90.5869C232.626 93.3975 227.221 93.3975 223.798 90.5869L216.746 84.8106C213.323 82 207.919 82 204.496 84.8106L197.444 90.5869C194.021 93.3975 188.617 93.3975 185.194 90.5869L178.142 84.8106C174.719 82 169.314 82 165.891 84.8106L158.839 90.5869C155.417 93.3975 150.012 93.3975 146.589 90.5869L139.537 84.8106C136.114 82 130.71 82 127.287 84.8106L120.235 90.5869C116.812 93.3975 111.407 93.3975 107.984 90.5869L100.933 84.8106C97.5096 82 92.105 82 88.682 84.8106L81.6302 90.5869C78.2073 93.3975 72.8027 93.3975 69.3797 90.5869L62.3279 84.8106C58.905 82 53.5004 82 50.0774 84.8106L43.0256 90.5869C39.6027 93.3975 34.1981 93.3975 30.7751 90.5869L23.7233 84.8106C20.3004 82 14.8958 82 11.4728 84.8106L4.42104 90.5869C0.998096 93.3975 -4.40655 93.3975 -7.82949 90.5869L-14.8813 84.8106C-18.3042 82 -23.7089 82 -27.1318 84.8106L-37.555 93.3533H-37.5293C-38.3786 94.0393 -39.022 94.8582 -39.4853 95.7434H-40Z" fill="#267EEC"/>
</svg>
